<?xml version="1.0" standalone="no"?><!DOCTYPE svg PUBLIC "-//W3C//DTD SVG 1.1//EN" "http://www.w3.org/Graphics/SVG/1.1/DTD/svg11.dtd"><svg t="1556299246338" class="icon" style="" viewBox="0 0 1024 1024" version="1.1" xmlns="http://www.w3.org/2000/svg" p-id="6743" xmlns:xlink="http://www.w3.org/1999/xlink" width="48" height="48"><defs><style type="text/css"></style></defs><path d="M983.691451 313.015101A511.960323 511.960323 0 1 0 512.048003 1024a511.960323 511.960323 0 0 0 511.960323-511.960323 511.960323 511.960323 0 0 0-40.316875-199.024576z m-639.950404-215.023335a738.502766 738.502766 0 0 0-58.875437 106.231767 462.684142 462.684142 0 0 1-54.395785-38.397025 447.965283 447.965283 0 0 1 111.991321-68.474693zM181.833595 209.343136a511.960323 511.960323 0 0 0 77.433999 54.395784A744.26232 744.26232 0 0 0 217.670817 480.042157H64.08272a447.965283 447.965283 0 0 1 117.750875-270.699021zM64.08272 544.037197h153.588097a744.26232 744.26232 0 0 0 41.596777 216.303237 511.960323 511.960323 0 0 0-77.433999 54.395784A447.965283 447.965283 0 0 1 64.08272 544.037197z m163.187353 314.855599a453.724836 453.724836 0 0 1 54.395785-38.397024 749.381923 749.381923 0 0 0 58.875437 106.231767 447.965283 447.965283 0 0 1-111.35137-67.834743zM480.050483 960.00496l-36.477173-3.839703a684.746932 684.746932 0 0 1-103.032015-163.187353 447.965283 447.965283 0 0 1 138.869237-32.63747z m0-264.299517a511.960323 511.960323 0 0 0-159.987601 35.837222 682.827081 682.827081 0 0 1-38.397024-187.505468h198.384625z m0-214.383385H281.665858A683.467031 683.467031 0 0 1 320.062882 292.536688a508.120621 508.120621 0 0 0 162.547402 37.757074z m0-214.383386a447.965283 447.965283 0 0 1-138.869238-33.277421 684.746932 684.746932 0 0 1 102.392065-164.467254L480.050483 64.074394z m315.495549-100.472213a455.004737 455.004737 0 0 1-54.395784 38.397024 743.622369 743.622369 0 0 0-58.875438-106.231767 447.965283 447.965283 0 0 1 112.631272 66.554842zM544.045523 64.074394l36.477173 3.839703a684.746932 684.746932 0 0 1 103.032015 163.187353 443.48563 443.48563 0 0 1-138.869237 33.277421z m0 264.299517a508.120621 508.120621 0 0 0 159.987601-35.837223 687.306734 687.306734 0 0 1 35.197272 187.505469H544.045523z m0 214.383385h197.744675a683.467031 683.467031 0 0 1-37.757074 188.785369 507.48067 507.48067 0 0 0-162.547402-37.757073z m0 417.247664v-201.584378a447.965283 447.965283 0 0 1 138.869238 33.277421 684.106982 684.106982 0 0 1-103.032015 163.187353z m137.589337-32.637471a740.422617 740.422617 0 0 0 58.875437-106.231767 454.364787 454.364787 0 0 1 54.395785 38.397024 447.965283 447.965283 0 0 1-113.271222 67.194793z m159.987601-111.991321a511.960323 511.960323 0 0 0-77.433999-54.395784 744.26232 744.26232 0 0 0 42.236727-216.943187H960.013286a447.965283 447.965283 0 0 1-117.750875 270.059071zM806.425189 480.042157a744.26232 744.26232 0 0 0-41.596776-216.303237 515.800025 515.800025 0 0 0 77.433998-54.395784A447.965283 447.965283 0 0 1 960.013286 480.042157z" fill="#006EB7" p-id="6744"></path></svg>