<?xml version="1.0" encoding="utf-8"?>
<!-- Generator: Adobe Illustrator 21.0.0, SVG Export Plug-In . SVG Version: 6.00 Build 0)  -->
<svg version="1.1" id="图层_1" xmlns="http://www.w3.org/2000/svg" xmlns:xlink="http://www.w3.org/1999/xlink" x="0px" y="0px"
	 viewBox="0 0 368.9 113.8" style="enable-background:new 0 0 368.9 113.8;" xml:space="preserve">
<style type="text/css">
	.st0{fill:#FDFDFD;}
	.st1{fill:#0871B8;}
	.st2{fill:#8A8A8A;}
	.st3{fill:#8B8B8B;}
	.st4{fill:#8E8E8E;}
	.st5{fill:#5C5A5A;}
	.st6{fill:#8D8D8D;}
	.st7{fill:#FBFCFD;}
	.st8{fill:#F9F9F9;}
	.st9{fill:#F7F7F7;}
	.st10{fill:#FCFCFC;}
</style>
<title>资源 1</title>
<g id="图层_2">
	<g id="图层_1-2">
		<path class="st0" d="M368.9,113.9H0V0h368.9V113.9z M5.1,63.9h19.2v44.7h14.3v-45h49.7C94,28,58.3-0.2,24.2,5.5v44.4h-19L5.1,63.9
			z M126,77.8c0.8,0.4,1.6,0.7,2.4,0.9c5.8,0.1,11.6,0.5,17.4,0c3.1-0.4,6.1-1.5,8.8-3.3c10.2-6.4,8.8-21.3-0.9-24.7
			c-0.6-0.3-1.1-0.7-1.6-1.2c7.9-4.6,10.2-8.3,8.7-15.6c-1.4-6.7-6.4-9.7-12.7-11.1c-7.3-1.5-14.9-1.4-22.2,0.3L126,77.8z
			 M233.4,75.2c10,5.7,18.9,4.6,24-2.7c3.8-5.2,5.2-11.7,3.9-18c-0.8-4-2.5-7.9-4.9-11.2c-4.4-5.8-15.7-6.9-21.8-0.4
			c-0.6,0.5-1.2,1-1.9,1.4l-1.4-4.1h-8.1v54.4h10.3L233.4,75.2z M307.4,68.6c-6.3,0.6-8.1-0.4-8.9-6.5c-0.6-4.1-0.4-8.3-0.5-12.4
			c-0.1-3.4,0-6.8,0-10.2h-10.8c0,9.4-0.5,18.4,0.2,27.3c0.7,8.3,6.4,12.3,14.8,12.1c4.4-0.1,7.3-2.7,10-6.1l1.3,4.8h8.7V39.4h-10.5
			c0,6.3,0.1,12.2,0,18.2C311.6,61.8,311.3,66,307.4,68.6z M186.4,77.6h29v-8h-16l16.3-21.4v-8h-28.2v8h15.2l-16.2,22.1L186.4,77.6z
			 M354.7,39.9c-6.1-1.6-12-2.1-17.7,0.5c-4.7,2.2-6.8,6.2-6.9,11.2c0,5.2,2.5,8.4,7.7,10.4c1.5,0.6,3.1,1.1,4.6,1.7
			c2,0.8,2.9,2.2,2,4.6c-4.4,3.6-9.3,0.6-14.4,0.6v8c5.4,2.4,11.6,2.7,17.2,0.7c5.6-1.9,8.6-6,8.6-11.5s-2.3-8.7-8.4-10.9
			c-1.8-0.7-3.6-1.4-5.8-2.2l0.4-4.9c2-0.4,4-0.6,6-0.7c2.2,0.3,4.4,0.7,6.5,1.2L354.7,39.9z M44.9,107c21-2.6,40.3-23,41.6-37H73.9
			c-4.6,5.3-8,10.6-12.6,14.4s-10.7,6.5-16.4,9.9V107z M278.5,77.7V19c-2.1,0-3.7,0-5.4,0s-3.2,0.1-4.8,0.2v58.5H278.5z M179.6,77.8
			V39.5h-10.3v38.3L179.6,77.8z M174.2,35.7c3,0,6.3-2.9,6.4-5.8c0.1-3.1-2.7-5.8-6.1-6c-3.4-0.2-6.3,2.3-6.5,5.7c0,0.1,0,0.1,0,0.2
			C168.1,33,171,35.7,174.2,35.7L174.2,35.7z"/>
		<path class="st1" d="M5.1,63.9v-14h19V5.5C58.3-0.2,94,28,88.4,63.6H38.7v44.9H24.3V63.9H5.1z M73.8,49.6
			c-0.5-13.8-19.6-30.2-35.1-30v30H73.8z"/>
		<path class="st2" d="M126,78.5c0-18.4,0-36.9-0.1-55.3c7.3-1.7,14.8-1.8,22.2-0.3c6.2,1.4,11.3,4.4,12.7,11.1
			c0.2,1.1,0.9,4.2-0.3,7.6c-2,5.8-7.8,8-8.7,8.3c0.6,0.3,1.2,0.6,1.9,0.9c9.6,3.3,11,18.3,0.9,24.6c-2.6,1.7-5.6,2.9-8.8,3.3
			c-5.8,0.5-11.6,0.1-17.4,0C127.6,78.6,126.8,78.5,126,78.5z M136.4,46c6.4,0.9,10.8-0.8,12.6-4.4c1.4-2.6,0.9-5.7-1.1-7.8
			c-2.2-2.6-7.5-3.4-11.6-1.7L136.4,46z M136.4,69.7c4.8,0.3,9.4,0.9,12.5-3.4c1.7-2.2,1.6-5.3-0.2-7.5c-3.1-4.1-7.6-4-12.4-3.7
			L136.4,69.7z"/>
		<path class="st3" d="M233.4,75.2v19.3h-10.3V40.1c3.1,0,6.3-0.1,9.4-0.1c0,1.4,0.1,2.8,0.1,4.2c7.3-4.9,16.2-5.2,22.3-0.9
			c9.2,6.5,9.7,22,1.3,29.7C250.5,78.1,241.4,79.1,233.4,75.2z"/>
		<path class="st4" d="M307.4,68.6c3.8-2.6,4.2-6.8,4.3-11c0.1-6,0-11.9,0-18.2h10.5v38.3c-3.3,0-6.7,0-10,0c0-1.6,0-3.2,0-4.9
			c-2.8,3.4-5.6,6-10,6.1c-8.4,0.2-14.2-3.8-14.8-12.1c-0.7-8.9-0.2-17.9-0.2-27.3H298c0,1,0,5,0,10.2c0,12.8,0,16.5,2.5,18.3
			C301.5,68.7,303.5,69.6,307.4,68.6z"/>
		<path class="st2" d="M186.4,77.6v-7.4l16.2-22.1h-15.2v-8h28.2v8l-16.3,21.5h16.1v8L186.4,77.6z"/>
		<path class="st2" d="M354.7,39.9v8.8c-1-0.3-2.1-0.5-3.2-0.7c-1.1-0.2-2.3-0.4-3.3-0.6c-0.7-0.2-2-0.5-3.7-0.2
			c-1,0.2-1.8,0.6-2.3,0.9c-0.2,0.2-1,0.9-1.1,2.2c-0.1,1.5,0.9,2.5,1,2.6c0.7,0.4,1.8,0.9,3.2,1.5c1.1,0.4,1.9,0.7,2.3,0.8
			c1.4,0.5,5,1.7,6.9,4.8c1,1.6,1.5,3.6,1.4,6.1c-0.1,5.6-3,9.6-8.6,11.5c-5.6,2-11.7,1.8-17.2-0.7v-8c5.1,0,10,3,14.4-0.6
			c0.9-2.4,0-3.8-2-4.6c-1.5-0.6-3.1-1.2-4.6-1.7c-5.2-2-7.7-5.1-7.7-10.4c0-5,2.1-9.1,6.9-11.2C342.8,37.9,348.6,38.3,354.7,39.9z"
			/>
		<path class="st5" d="M44.9,107V94.3c3.9-1.2,10.5-3.7,17.1-9.3c6.4-5.4,10-11.3,11.9-15h12.6C85.2,84,65.9,104.4,44.9,107z"/>
		<path class="st3" d="M278.5,77.7h-10.2V19.2c1.6-0.1,3.2-0.2,4.8-0.2s3.3,0,5.4,0L278.5,77.7z"/>
		<path class="st3" d="M179.6,77.8h-10.3V39.5h10.3L179.6,77.8z"/>
		<path class="st6" d="M174.3,35.7c-3.3,0-6.2-2.8-6.2-5.8c0.1-3.4,2.9-6.1,6.3-6c0.1,0,0.1,0,0.2,0c3.4,0.1,6.1,2.9,6.1,6
			C180.5,32.8,177.3,35.8,174.3,35.7z"/>
		<path class="st7" d="M73.8,49.6H38.7v-30C54.2,19.4,73.3,35.9,73.8,49.6z"/>
		<path class="st8" d="M136.4,46V32.1c4.1-1.6,9.3-0.9,11.6,1.7c2,2.1,2.5,5.3,1.1,7.8C147.2,45.3,142.8,46.9,136.4,46z"/>
		<path class="st9" d="M136.4,69.8V55.2c4.8-0.3,9.3-0.4,12.4,3.7c1.7,2.2,1.8,5.2,0.2,7.5C145.8,70.6,141.3,70,136.4,69.8z"/>
		<path class="st10" d="M236.8,50.6c3-2.5,7.9-3,11.2-0.9c5.7,3.7,5.4,14.6-0.2,18.9c-2.3,1.8-5.9,2.7-8.9,1.4
			C233,67.2,231.1,55.4,236.8,50.6z"/>
	</g>
	<path class="st2" d="M345.8,51.8"/>
	<path class="st2" d="M163.8,81.5"/>
	<path class="st4" d="M317.8,81"/>
	<path class="st10" d="M263.3,75.5"/>
	<path class="st3" d="M240.4,70.2"/>
	<path class="st10" d="M259.3,78.9"/>
	<path class="st3" d="M309.7,125.3"/>
	<path class="st3" d="M266.5,91.3"/>
</g>
</svg>
