<?xml version="1.0" standalone="no"?><!DOCTYPE svg PUBLIC "-//W3C//DTD SVG 1.1//EN" "http://www.w3.org/Graphics/SVG/1.1/DTD/svg11.dtd"><svg t="1556537835077" class="icon" style="" viewBox="0 0 1024 1024" version="1.1" xmlns="http://www.w3.org/2000/svg" p-id="4882" xmlns:xlink="http://www.w3.org/1999/xlink" width="64" height="64"><defs><style type="text/css"></style></defs><path d="M935.720398 373.911992l-407.771147-183.77556c-10.202363-4.602831-21.901823-4.602831-32.104185 0l-407.77217 183.77556c-13.58132 6.118348-22.427802 19.414165-22.773679 34.216289-0.340761 14.802124 9.630335 28.492938 22.913872 35.223223l35.247782 16.98586 0 136.154983c0 13.310144 10.870582 24.096814 24.276916 24.096814 13.406335 0 24.276916-10.786671 24.276916-24.096814l0-111.540376 58.265008 31.168883 0 165.205623c0 6.541997 1.760087 12.942777 5.358031 18.426675 3.693112 5.614881 92.317569 137.562029 270.917246 137.562029 183.647647 0 268.339538-132.662439 271.837198-138.310066 3.295046-5.314029 5.409197-11.43647 5.409197-17.677615L783.801383 521.617032l153.937998-78.265528c13.282514-6.730285 21.299095-20.421098 20.958334-35.223223C958.351837 393.326157 949.302741 380.030339 935.720398 373.911992zM715.826222 670.75163c-19.421328 23.786753-85.148285 99.090832-208.78414 99.090832-120.426767 0-189.362812-75.04109-208.78414-99.482759L298.257941 550.582737l196.139146 99.540064c5.54632 2.814092 11.523451 4.221138 17.582447 4.221138 6.057973 0 12.476149-1.407046 18.023492-4.221138l185.824219-94.043886L715.827245 670.75163zM511.896646 572.493769 193.537901 411.064147l318.358745-143.477762 318.358745 143.477762L511.896646 572.493769zM171.6985 653.017734c7.182586 7.228635 11.358699 17.155728 11.358699 27.279297 0 10.118452-4.176113 20.049638-11.358699 27.279297-7.186679 7.129374-17.284665 11.275811-27.476795 11.275811s-20.194948-4.146437-27.476795-11.275811c-7.181563-7.229658-11.357675-17.159822-11.357675-27.279297 0-10.123568 4.177136-20.049638 11.357675-27.279297 7.281847-7.135514 17.284665-11.276834 27.476795-11.276834S164.416654 645.88222 171.6985 653.017734z" p-id="4883" fill="#264989"></path></svg>