<?xml version="1.0" standalone="no"?><!DOCTYPE svg PUBLIC "-//W3C//DTD SVG 1.1//EN" "http://www.w3.org/Graphics/SVG/1.1/DTD/svg11.dtd"><svg t="1556304090274" class="icon" style="" viewBox="0 0 1024 1024" version="1.1" xmlns="http://www.w3.org/2000/svg" p-id="3544" xmlns:xlink="http://www.w3.org/1999/xlink" width="48" height="48"><defs><style type="text/css"></style></defs><path d="M909.790126 108.376574H114.619228c-27.119728 0-49.122526 21.388767-49.122526 47.587448v710.3322c0 26.301019 22.002798 47.587448 49.122526 47.587448h795.170898c27.119728 0 49.122526-21.388767 49.122526-47.587448V155.964022c0-26.198681-22.002798-47.587448-49.122526-47.587448z m5.628623 760.785129h-806.428143V152.382171h806.530481v716.779532z" fill="#006EB7" p-id="3545"></path><path d="M233.843694 504.73396h234.150709c12.075954 0 21.90046-9.824505 21.90046-21.90046 0-12.178293-9.824505-22.002798-21.90046-22.002798H233.843694c-12.075954 0-21.90046 9.824505-21.90046 22.002798 0 12.075954 9.824505 21.90046 21.90046 21.90046zM233.843694 680.551669h234.150709c12.075954 0 21.90046-9.824505 21.90046-22.002798s-9.824505-22.002798-21.90046-22.002799H233.843694c-12.075954 0-21.90046 9.824505-21.90046 22.002799s9.824505 22.002798 21.90046 22.002798zM763.445932 459.909654H641.867679c-27.01739 0-49.122526 21.388767-49.122526 47.587448v124.648411c0 26.198681 22.002798 47.485109 49.122526 47.485109H763.445932c27.01739 0 49.020188-21.286428 49.020188-47.485109V507.497102c0-26.198681-22.002798-47.587448-49.020188-47.587448z m5.014592 176.636418H636.546072V504.119928h131.914452V636.546072zM233.946032 357.36638h556.619629c12.075954 0 22.002798-9.824505 22.002798-22.002798 0-12.075954-9.824505-22.002798-22.002798-22.002798H233.946032c-12.075954 0-22.002798 9.824505-22.002798 22.002798s9.824505 22.002798 22.002798 22.002798z" fill="#006EB7" p-id="3546"></path></svg>