<?xml version="1.0" standalone="no"?><!DOCTYPE svg PUBLIC "-//W3C//DTD SVG 1.1//EN" "http://www.w3.org/Graphics/SVG/1.1/DTD/svg11.dtd"><svg t="1556453744174" class="icon" style="" viewBox="0 0 1024 1024" version="1.1" xmlns="http://www.w3.org/2000/svg" p-id="2111" xmlns:xlink="http://www.w3.org/1999/xlink" width="32" height="32"><defs><style type="text/css"></style></defs><path d="M945.9 878L751.3 683.4c50.6-65 80.7-146.7 80.7-235.4 0-211.9-172.1-384-384-384S64 236.1 64 448s172.1 384 384 384c88.7 0 170.4-30.1 235.4-80.7L878 945.9c18.8 18.7 49.2 18.7 67.9 0 18.7-18.8 18.7-49.2 0-67.9zM448 736c-159 0-288-129-288-288s129-288 288-288 288 129 288 288-129 288-288 288z" p-id="2112" fill="#2c2c2c"></path></svg>