<?xml version="1.0" standalone="no"?><!DOCTYPE svg PUBLIC "-//W3C//DTD SVG 1.1//EN" "http://www.w3.org/Graphics/SVG/1.1/DTD/svg11.dtd"><svg t="1556453843637" class="icon" style="" viewBox="0 0 1024 1024" version="1.1" xmlns="http://www.w3.org/2000/svg" p-id="5460" xmlns:xlink="http://www.w3.org/1999/xlink" width="32" height="32"><defs><style type="text/css"></style></defs><path d="M982.869333 511.351467c0-275.729067-220.023467-499.234133-491.4176-499.234134C220.023467 12.117333 0 235.6224 0 511.351467 0 766.0544 187.733333 976.213333 430.2848 1006.762667a241.425067 241.425067 0 0 0 66.321067 3.822933c269.038933-2.833067 486.263467-225.245867 486.263466-499.234133z m-70.280533 7.0656a505.9584 505.9584 0 0 0-9.557333-72.977067c0.443733-8.465067 0.546133-16.4864 0.341333-23.927467 6.075733 28.9792 9.284267 59.016533 9.284267 89.873067l-0.068267 7.031467z m-842.376533-7.0656c0-30.276267 3.106133-59.767467 8.977066-88.2688 18.193067 19.797333 61.064533 19.319467 71.543467-10.24 18.670933 11.332267 43.8272 13.4144 43.8272 36.078933 0 74.752 2.628267 154.965333 69.461333 156.194133 1.877333 0 37.2736 13.6192 54.101334 58.026667 5.8368 15.325867 28.8768 0 54.101333 0 12.629333 0 0 21.6064 0 68.3008 0 46.523733 98.679467 118.1696 98.679467 118.1696-0.477867 30.788267 0.785067 55.7056 3.310933 75.5712-22.254933-0.4096-41.028267 2.594133-55.773867 7.714133-197.870933-35.157333-348.228267-210.500267-348.228266-421.546666z m524.936533 414.856533c-2.1504-10.8544-11.741867-16.7936-29.149867-12.151467 13.892267-60.2112 20.650667-93.934933 49.698134-119.534933 41.984-37.034667 4.983467-78.199467-26.965334-73.3184-25.1904 3.857067-9.250133-31.744-31.778133-33.6896-22.493867-1.911467-51.848533-47.4112-84.206933-63.044267-17.134933-8.260267-33.9968-30.481067-60.450134-31.470933-23.4496-0.9216-57.719467 20.1728-57.719466 3.8912 0-52.360533-5.188267-89.7024-6.280534-104.618667-0.853333-11.9808-7.714133-4.061867 23.995734-3.2768 17.237333 0.477867 8.840533-35.2256 25.9072-36.625066 16.7936-1.365333 56.763733 15.940267 66.935466 9.045333 9.454933-6.417067 69.5296 160.324267 69.5296 27.579733 0-15.735467-8.021333-43.144533 0-58.0608 31.744-58.948267 61.44-107.008 58.7776-114.039466-1.501867-3.959467-32.4608-7.202133-57.2416 1.2288-8.362667 2.833067 2.6624 16.145067-9.3184 18.978133-44.987733 10.581333-84.718933-12.322133-70.826666-33.826133 14.267733-22.050133 65.911467-9.6256 70.417066-53.8624 2.594133-25.326933 4.778667-54.6816 6.212267-76.4928 60.5184 9.6256 53.8624-79.872-36.1472-89.463467 182.101333 2.1504 336.418133 121.719467 393.045333 287.6416a16.725333 16.725333 0 0 0-10.0352-4.642133c-27.204267-69.12-93.252267-19.114667-70.8608 41.847466-120.081067 93.832533-89.326933 159.266133-49.8688 196.778667 20.718933 19.694933 40.5504 49.288533 53.418667 70.587733-14.0288 41.5744 51.677867 24.917333 84.0704-45.636266-41.2672 145.373867-156.2624 258.901333-301.1584 296.174933z m0 0" p-id="5461"></path></svg>