<?xml version="1.0" standalone="no"?><!DOCTYPE svg PUBLIC "-//W3C//DTD SVG 1.1//EN" "http://www.w3.org/Graphics/SVG/1.1/DTD/svg11.dtd"><svg t="1556305054490" class="icon" style="" viewBox="0 0 1024 1024" version="1.1" xmlns="http://www.w3.org/2000/svg" p-id="2008" xmlns:xlink="http://www.w3.org/1999/xlink" width="32" height="32"><defs><style type="text/css"></style></defs><path d="M122.545664 559.36a72.0384 72.0384 0 0 1-101.376 0 70.7072 70.7072 0 0 1 0-100.8128L461.489664 20.8384a72.0896 72.0896 0 0 1 101.376 0l440.32 437.7088a70.7072 70.7072 0 0 1 0 100.8128 72.0384 72.0384 0 0 1-101.376 0L512.177664 172.0832z m389.632 56.32l389.632 387.2768a71.936 71.936 0 0 0 101.376 0 70.7072 70.7072 0 0 0 0-100.8128l-440.32-437.7088a72.0896 72.0896 0 0 0-101.376 0L21.169664 902.144a70.7072 70.7072 0 0 0 0 100.8128 71.936 71.936 0 0 0 101.376 0z m0 0" p-id="2009" fill="#ffffff"></path></svg>